<svg xmlns="http://www.w3.org/2000/svg" viewBox="0 0 70.54149 55.78649"><g id="Layer_2" data-name="Layer 2"><g id="Layer_1-2" data-name="Layer 1"><path d="M42.64824,55.78649H37.87941L12.65132,27.89325,37.87941,0h4.76883a27.89325,27.89325,0,1,1,0,55.78649Zm-2.64646-4.78232h2.64646a23.11093,23.11093,0,1,0,0-46.22185H40.00178L19.09936,27.89325Z" style="fill:#1b1b2f"/><polygon points="31.68 55.786 6.452 27.893 31.68 0 25.232 0 0.004 27.893 25.232 55.786 31.68 55.786" style="fill:#1b1b2f"/><path d="M42.64824,9.512h-1.606L36.717,14.2943h5.93129a13.599,13.599,0,1,1,0,27.1979H36.717l4.32532,4.78232h1.606a18.38128,18.38128,0,1,0,0-36.76255Z" style="fill:#1b1b2f"/><polygon points="19.034 55.783 12.59 55.783 4.788 47.169 0 41.879 0 34.75 4.788 40.041 19.034 55.783" style="fill:#1b1b2f"/><polygon points="4.788 40.041 4.788 55.783 0 55.783 0 34.75 4.788 40.041" style="fill:#1b1b2f"/><polygon points="19.034 0 12.59 0 4.788 8.614 0 13.904 0 21.033 4.788 15.742 19.034 0" style="fill:#1b1b2f"/><polygon points="4.788 15.742 4.788 0 0 0 0 21.033 4.788 15.742" style="fill:#1b1b2f"/></g></g></svg>