<svg id="Layer_1" data-name="Layer 1" xmlns="http://www.w3.org/2000/svg" viewBox="0 0 980.78094 1099.74727"><path d="M739.062,1002.94242a119.18125,119.18125,0,1,0-167.39383,19.69384A119.19543,119.19543,0,0,0,739.062,1002.94242Zm708.96211,0a119.1813,119.1813,0,1,0-167.39365,19.69384,119.19535,119.19535,0,0,0,167.39365-19.69384Z" transform="translate(-509.60908 -450.12697)" style="fill:#fff;stroke:#231f20;stroke-linecap:round;stroke-linejoin:round;stroke-width:33.45743942260742px;fill-rule:evenodd"/><path d="M773.28662,719.89193h453.4251c52.255,0,95.00914,42.75414,95.00914,95.00914v453.4251c0,52.25512-42.75415,95.00914-95.00914,95.00914H773.28662c-52.255,0-95.009-42.754-95.009-95.00914V814.90107c0-52.255,42.754-95.00914,95.009-95.00914Z" transform="translate(-509.60908 -450.12697)" style="fill:#fff;stroke:#231f20;stroke-linecap:round;stroke-linejoin:round;stroke-width:33.45743942260742px;fill-rule:evenodd"/><path d="M938.19248,1002.31931a110.55115,110.55115,0,1,0-151.01554,40.46411,110.56446,110.56446,0,0,0,151.01554-40.46411Zm315.09431,0a110.5512,110.5512,0,1,0-151.01573,40.46411,110.56452,110.56452,0,0,0,151.01573-40.46411Z" transform="translate(-509.60908 -450.12697)" style="fill:#fff;stroke:#231f20;stroke-linecap:round;stroke-linejoin:round;stroke-width:33.45743942260742px;fill-rule:evenodd"/><line x1="490.39002" y1="153.04" x2="490.39002" y2="269.76496" style="fill:none;stroke:#231f20;stroke-linecap:round;stroke-linejoin:round;stroke-width:33.45743942260742px"/><path d="M1058.09468,607.10545a82.15894,82.15894,0,1,0-116.19053.00049,82.16873,82.16873,0,0,0,116.19053-.00049Z" transform="translate(-509.60908 -450.12697)" style="fill:#fff;stroke:#231f20;stroke-linecap:round;stroke-linejoin:round;stroke-width:33.45743179321289px;fill-rule:evenodd"/><line x1="318.07322" y1="755.65771" x2="662.70738" y2="755.65771" style="fill:none;stroke:#231f20;stroke-linecap:round;stroke-linejoin:round;stroke-width:33.45743942260742px"/><polygon points="99.477 984.552 881.304 984.552 881.304 1083.019 99.477 1083.019 99.477 984.552 99.477 984.552" style="fill:#fff;stroke:#231f20;stroke-linecap:round;stroke-linejoin:round;stroke-width:33.45743942260742px;fill-rule:evenodd"/></svg>