<svg xmlns="http://www.w3.org/2000/svg" viewBox="0 0 742.6664 742.6665"><g id="Layer_2" data-name="Layer 2"><g id="_Layer_" data-name="&lt;Layer&gt;"><path d="M371.3337,742.6665C166.5792,742.6665,0,576.0873,0,371.3328,0,166.5792,166.5792,0,371.3337,0,576.0873,0,742.6664,166.5792,742.6664,371.3328,742.6664,576.0873,576.0873,742.6665,371.3337,742.6665Zm0-670.6665C206.2791,72,72,206.2791,72,371.3328c0,165.0546,134.2791,299.3337,299.3337,299.3337,165.0537,0,299.3327-134.2791,299.3327-299.3337C670.6664,206.2791,536.3874,72,371.3337,72Z"/><path d="M276.4863,502.1802a36,36,0,0,1-25.4574-61.4529L440.7228,251.0289a36.0022,36.0022,0,1,1,50.9148,50.9148L301.9437,491.6331A35.88359,35.88359,0,0,1,276.4863,502.1802Z"/><path d="M466.1802,502.1802a35.88512,35.88512,0,0,1-25.4574-10.5471L251.0289,301.9437a36.0022,36.0022,0,1,1,50.9148-50.9148L491.6376,440.7273a36,36,0,0,1-25.4574,61.4529Z"/></g></g></svg>