<?xml version="1.0" encoding="utf-8"?>
<svg xml:space="preserve" viewBox="0 0 100 100" y="0" x="0" xmlns="http://www.w3.org/2000/svg" id="圖層_1" version="1.1" style="height: 100%; width: 100%; background: rgb(255, 255, 255); shape-rendering: auto;" width="200px" height="200px"><g class="ldl-scale" style="transform-origin: 50% 50%; transform: rotate(0deg) scale(0.8, 0.8);"><g class="ldl-ani"><g class="ldl-layer"><g class="ldl-ani" style="transform: scale(0.91); transform-origin: 50px 50px; animation: 1.11111s linear -0.617284s infinite normal forwards running breath-6f066a77-ceca-42d5-ba3f-757fc331c780;"><path d="M26.6 85.3h46.8v3.5H26.6z" fill="#666" style="fill: rgb(102, 102, 102);"></path></g></g><g class="ldl-layer"><g class="ldl-ani" style="transform: scale(0.91); transform-origin: 50px 50px; animation: 1.11111s linear -0.679012s infinite normal forwards running breath-6f066a77-ceca-42d5-ba3f-757fc331c780;"><path d="M29 75.3h42v3.5H29z" fill="#666" style="fill: rgb(102, 102, 102);"></path></g></g><g class="ldl-layer"><g class="ldl-ani" style="transform: scale(0.91); transform-origin: 50px 50px; animation: 1.11111s linear -0.740741s infinite normal forwards running breath-6f066a77-ceca-42d5-ba3f-757fc331c780;"><path d="M41.8 63.6l-4.7-2.7-18.2 31.6h6.2z" fill="#666" style="fill: rgb(102, 102, 102);"></path></g></g><g class="ldl-layer"><g class="ldl-ani" style="transform: scale(0.91); transform-origin: 50px 50px; animation: 1.11111s linear -0.802469s infinite normal forwards running breath-6f066a77-ceca-42d5-ba3f-757fc331c780;"><path d="M62.9 60.9l-4.7 2.7 16.7 28.9h6.2z" fill="#666" style="fill: rgb(102, 102, 102);"></path></g></g><g class="ldl-layer"><g class="ldl-ani" style="transform: scale(0.91); transform-origin: 50px 50px; animation: 1.11111s linear -0.864198s infinite normal forwards running breath-6f066a77-ceca-42d5-ba3f-757fc331c780;"><path fill="#333" d="M82 15.8c0-5.5-16-8.3-32-8.3s-32 2.8-32 8.3v46.8h64V15.8z" style="fill: rgb(51, 51, 51);"></path></g></g><g class="ldl-layer"><g class="ldl-ani" style="transform: scale(0.91); transform-origin: 50px 50px; animation: 1.11111s linear -0.925926s infinite normal forwards running breath-6f066a77-ceca-42d5-ba3f-757fc331c780;"><path fill="#e15b64" d="M50 82.3c16 0 32-2.8 32-8.3V62.6H18V74c0 5.6 16 8.3 32 8.3z" style="fill: rgb(225, 91, 100);"></path></g></g><g class="ldl-layer"><g class="ldl-ani" style="transform: scale(0.91); transform-origin: 50px 50px; animation: 1.11111s linear -0.987654s infinite normal forwards running breath-6f066a77-ceca-42d5-ba3f-757fc331c780;"><path fill="#fff" d="M33 58.6h-7.8c-1.4 0-2.6-1.1-2.6-2.6v-4.4c0-1.4 1.1-2.6 2.6-2.6H33c1.4 0 2.6 1.1 2.6 2.6V56c-.1 1.5-1.2 2.6-2.6 2.6z" style="fill: rgb(255, 255, 255);"></path></g></g><g class="ldl-layer"><g class="ldl-ani" style="transform: scale(0.91); transform-origin: 50px 50px; animation: 1.11111s linear -1.04938s infinite normal forwards running breath-6f066a77-ceca-42d5-ba3f-757fc331c780;"><path fill="#fff" d="M66.4 58.6h7.8c1.4 0 2.6-1.1 2.6-2.6v-4.4c0-1.4-1.1-2.6-2.6-2.6h-7.8c-1.4 0-2.6 1.1-2.6 2.6V56c.1 1.5 1.2 2.6 2.6 2.6z" style="fill: rgb(255, 255, 255);"></path></g></g><g class="ldl-layer"><g class="ldl-ani" style="transform: scale(0.91); transform-origin: 50px 50px; animation: 1.11111s linear -1.11111s infinite normal forwards running breath-6f066a77-ceca-42d5-ba3f-757fc331c780;"><path fill="#fff" d="M22.6 19.8v19.3c0 2.3 1.8 4.1 4.1 4.1h46.1c2.3 0 4.1-1.8 4.1-4.1V19.8c-.1-3.5-54.3-3.5-54.3 0z" style="fill: rgb(255, 255, 255);"></path></g></g><metadata xmlns:d="https://loading.io/stock/"><d:name>train</d:name><d:tags>subway,tram,rail,streetcar,express,trolley car,train,transportation</d:tags><d:license>by</d:license><d:slug>c4wlp</d:slug></metadata></g></g><style id="breath-6f066a77-ceca-42d5-ba3f-757fc331c780" data-anikit="">@keyframes breath-6f066a77-ceca-42d5-ba3f-757fc331c780
{
  0% {
    animation-timing-function: cubic-bezier(0.9647,0.2413,-0.0705,0.7911);
    transform: scale(0.9099999999999999);
  }
  51% {
    animation-timing-function: cubic-bezier(0.9226,0.2631,-0.0308,0.7628);
    transform: scale(1.02994);
  }
  100% {
    transform: scale(0.9099999999999999);
  }
}</style><!-- [ldio] generated by https://loading.io/ --></svg>